<svg xmlns="http://www.w3.org/2000/svg" version="1.1" xmlns:xlink="http://www.w3.org/1999/xlink" width="512" height="512" x="0" y="0" viewBox="0 0 4335 4335" style="enable-background:new 0 0 512 512" xml:space="preserve" fill-rule="evenodd" class=""><g><linearGradient id="a" x1="2167.66" x2="2167.66" y1=".03" y2="4334.89" gradientUnits="userSpaceOnUse"><stop stop-opacity="1" stop-color="#0094ff" offset="0.011583011583011582"></stop><stop stop-opacity="1" stop-color="#e43eff" offset="0.7181467181467182"></stop></linearGradient><path fill="url(#a)" d="M2020 1447h-493c61 258 432 258 493 0zm-671 1251C603 2698 0 2094 0 1349S603 0 1349 0c745 0 1349 604 1349 1349 0 341-126 662-356 912l421 421 157-157c69-69 181-69 250 0l1032 1032c284 284 86 778-323 778-122 0-237-47-322-133L2525 3170c-69-69-69-181 0-250l157-157-421-421c-250 230-571 356-912 356zm0-2583C667 115 115 667 115 1349c0 681 552 1233 1234 1233 681 0 1233-552 1233-1233 0-682-552-1234-1233-1234zm1696 2474c-16 0-32 6-43 18l-395 395c-24 24-24 63 0 87l87 87 482-482c-44-44-90-105-131-105zm-270 668 863 863c133 133 350 133 482 0 133-133 133-349 0-482l-863-863zm1104 680c-14 0-29-5-40-17l-623-622c-54-54 28-135 82-82l622 623c37 36 10 98-41 98zM1349 2398C417 2398-52 1266 607 607c410-410 1074-409 1483 0s409 1074 0 1483c-198 198-461 308-741 308zm0-1982c-830 0-1247 1006-660 1593 365 364 955 364 1320 0 364-364 364-956 0-1320-176-176-411-273-660-273zm-252 1578c-127 0-231-104-231-231v-748c0-127 104-230 231-230s230 103 230 230v748c0 127-103 231-230 231zm0-1094c-64 0-115 52-115 115v317h230v-317c0-63-52-115-115-115zm-115 547v316c0 152 230 152 230 0v-316zm545-115h493c-61-259-432-259-493 0zm246 425c-203 0-368-165-368-368s165-368 368-368 369 165 369 368-166 368-369 368z" opacity="1" data-original="url(#a)" class=""></path></g></svg>